<?xml version="1.0" encoding="UTF-8" standalone="no"?>
<svg
   width="1200pt"
   height="1200pt"
   version="1.1"
   viewBox="0 0 1200 1200"
   id="svg8"
   sodipodi:docname="io.github.rschroll.nbpreview-symbolic.svg"
   inkscape:version="1.1.2 (0a00cf5339, 2022-02-04)"
   xmlns:inkscape="http://www.inkscape.org/namespaces/inkscape"
   xmlns:sodipodi="http://sodipodi.sourceforge.net/DTD/sodipodi-0.dtd"
   xmlns="http://www.w3.org/2000/svg"
   xmlns:svg="http://www.w3.org/2000/svg">
  <defs
     id="defs12" />
  <sodipodi:namedview
     id="namedview10"
     pagecolor="#ffffff"
     bordercolor="#666666"
     borderopacity="1.0"
     inkscape:pageshadow="2"
     inkscape:pageopacity="0.0"
     inkscape:pagecheckerboard="0"
     inkscape:document-units="pt"
     showgrid="false"
     inkscape:zoom="0.52375"
     inkscape:cx="799.04535"
     inkscape:cy="799.04535"
     inkscape:window-width="1920"
     inkscape:window-height="1016"
     inkscape:window-x="0"
     inkscape:window-y="27"
     inkscape:window-maximized="1"
     inkscape:current-layer="g6" />
  <g
     id="g6">
    <circle
       style="fill:#ffffff;fill-opacity:1;stroke:none;stroke-width:0.75"
       id="path1319"
       cx="600.13177"
       cy="600.61011"
       r="538.69055" />
    <path
       d="m994 783c0 26.953-27.309 48.805-60.996 48.805s-60.996-21.852-60.996-48.805 27.309-48.805 60.996-48.805 60.996 21.852 60.996 48.805"
       id="path2" />
    <path
       d="m 1140,600 c 0,298.23 -241.77,540 -540,540 C 301.77,1140 60,898.23 60,600 60,301.77 301.77,60 600,60 c 298.23,0 540,241.77 540,540 z m -72.598,-228.001 c -7.6406,-18 -16.641,-33 -28.078,-50.039 l -0,0 C 783,265.499 707.94,290.628 498.76,298.499 c -132.11,4.9688 -167.26,-16.5 -338.08,23.461 -11.809,16.297 -20.809,31.668 -28.078,50.039 l -12.721,27.961 c -6.1328,14.293 -12.625,30.539 -16.922,47.039 188.04,-37.5 313.27,-12.742 513.54,-12 196.64,0.73047 347.26,-22.5 480.54,12 -3.5352,-15 -10.781,-35.496 -16.914,-47.039 h -0 m 34.918,129 c -114.54,-27.961 -132.27,4.668 -231.54,-0.96094 -87.527,-4.9688 -190.5,-20.258 -297,-18.758 -61.645,0.86328 -117.56,11.617 -175.5,13.5 -137.71,4.4883 -255.07,-9.875 -326.04,6.2031 -2.9648,25.551 -4.9219,46.934 -4.9219,71.055 0,23.398 0.45703,48 4.5586,69 236.4,-44.258 792.9,-48 1030.8,0 3.6016,-28.5 4.5586,-45.602 4.5586,-69 0,-24.121 -0.957,-46.129 -4.918,-71.039 z M 227.759,963 c 18.492,20.004 30.742,31.754 49.922,45 151.82,-20.004 491.82,-25.5 644.64,0 21.18,-16.5 33.18,-26.258 49.922,-45 -138.25,-28.5 -334.9,-3.2656 -480.25,-3.7422 C 343.143,958.75389 298.493,951 227.753,963 Z M 114.719,786.96 c 16.906,40.297 34.152,72.168 51,99 204.78,-36.203 663.78,-38.461 868.56,0 22.223,-35.207 35.965,-62.207 51,-99 -78.277,-3.457 -67.117,-65.195 -136.78,-73.957 -71.496,-9 -81.562,42.215 -128.03,39.984 -88.906,-4.2734 -184.93,13.98 -281.98,15.77 -175.88,3.25 -225,-32.258 -423.78,18.203 z"
       id="path4"
       sodipodi:nodetypes="ssssscccccccccccccccccsccccccccccccccccccccc" />
  </g>
</svg>
