<?xml version="1.0" encoding="UTF-8" standalone="no"?>
<svg
   width="1200pt"
   height="1200pt"
   version="1.1"
   viewBox="0 0 1200 1200"
   id="svg8"
   sodipodi:docname="io.github.rschroll.nbpreview.svg"
   inkscape:version="1.1.2 (0a00cf5339, 2022-02-04)"
   xmlns:inkscape="http://www.inkscape.org/namespaces/inkscape"
   xmlns:sodipodi="http://sodipodi.sourceforge.net/DTD/sodipodi-0.dtd"
   xmlns="http://www.w3.org/2000/svg"
   xmlns:svg="http://www.w3.org/2000/svg">
  <defs
     id="defs12" />
  <sodipodi:namedview
     id="namedview10"
     pagecolor="#ffffff"
     bordercolor="#666666"
     borderopacity="1.0"
     inkscape:pageshadow="2"
     inkscape:pageopacity="0.0"
     inkscape:pagecheckerboard="0"
     inkscape:document-units="pt"
     showgrid="false"
     inkscape:zoom="0.37034718"
     inkscape:cx="400.97511"
     inkscape:cy="625.08914"
     inkscape:window-width="1920"
     inkscape:window-height="1016"
     inkscape:window-x="0"
     inkscape:window-y="27"
     inkscape:window-maximized="1"
     inkscape:current-layer="g6" />
  <g
     id="g6">
    <circle
       style="fill:#ffffff;fill-opacity:1;stroke:none;stroke-width:0.75"
       id="path1319"
       cx="599.02905"
       cy="599.67572"
       r="538.69055" />
    <path
       d="m994 783c0 26.953-27.309 48.805-60.996 48.805s-60.996-21.852-60.996-48.805 27.309-48.805 60.996-48.805 60.996 21.852 60.996 48.805"
       id="path2"
       style="fill:#f37726;fill-opacity:1" />
    <path
       d="m1140 600c0 298.23-241.77 540-540 540s-540-241.77-540-540 241.77-540 540-540 540 241.77 540 540zm-100.68-278.04c-256.32-56.461-331.38-31.332-540.56-23.461-132.11 4.9688-167.26-16.5-338.08 23.461-11.809 16.297-20.809 31.668-28.078 50.039 106.81-21.961 318.88-13.656 507.9-13.5 178.91 0.14453 335.29-9.1094 426.9 13.5-7.6406-18-16.641-33-28.078-50.039zm40.801 78c-93.168-24.816-255.11-15.984-436.62-16.703-198.62-0.80469-417.74-8.8828-523.62 16.703-6.1328 14.293-12.625 30.539-16.922 47.039 188.04-37.5 313.27-12.742 513.54-12 196.64 0.73047 347.26-22.5 480.54 12-3.5352-15-10.781-35.496-16.914-47.039zm34.918 129c-114.54-27.961-132.27 4.668-231.54-0.96094-87.527-4.9688-190.5-20.258-297-18.758-61.645 0.86328-117.56 11.617-175.5 13.5-137.71 4.4883-255.07-9.875-326.04 6.2031-2.9648 25.551-4.9219 46.934-4.9219 71.055 0 23.398 0.45703 48 4.5586 69 236.4-44.258 792.9-48 1030.8 0 3.6016-28.5 4.5586-45.602 4.5586-69 0.003907-24.121-0.95703-46.129-4.918-71.039zm-887.28 434.04c18.492 20.004 30.742 31.754 49.922 45 151.82-20.004 491.82-25.5 644.64 0 21.18-16.5 33.18-26.258 49.922-45-138.25-28.5-334.9-3.2656-480.25-3.7422-148.85-0.50391-193.5-8.2578-264.24 3.7422zm-113.04-176.04c16.906 40.297 34.152 72.168 51 99 204.78-36.203 663.78-38.461 868.56 0 22.223-35.207 35.965-62.207 51-99-78.277-3.457-67.117-65.195-136.78-73.957-71.496-9-81.562 42.215-128.03 39.984-88.906-4.2734-184.93 13.98-281.98 15.77-175.88 3.25-225-32.258-423.78 18.203zm215.3 124.38c-10.633-3.1211-21.086 0.58984-23.328 8.2695-2.2578 7.6797 4.5352 16.441 15.168 19.559 10.633 3.1211 21.086-0.58984 23.328-8.2695 2.2578-7.6914-4.5352-16.438-15.168-19.559zm109.6 2.6641c-10.43 0-18.875 5.375-18.875 12s8.4492 12 18.875 12c10.43 0 18.875-5.375 18.875-12s-8.4492-12-18.875-12zm106.38-5.2578c-12.012 0-21.758 6.2148-21.758 13.871s9.7305 13.871 21.758 13.871c12.023 0 21.758-6.2148 21.758-13.871 0-7.6523-9.7461-13.871-21.758-13.871zm196.32 1.7891c-7.9805 0.70703-14.027 5.9766-13.512 11.746 0.51562 5.7734 7.4023 9.875 15.371 9.168 7.9805-0.70703 14.027-5.9766 13.512-11.746s-7.4023-9.875-15.371-9.168zm-321.62-668.51c-9.5039 0.625-16.859 6.6016-16.414 13.355 0.44531 6.7578 8.5078 11.723 18.012 11.102 9.5039-0.625 16.859-6.6016 16.414-13.355-0.42969-6.7578-8.5078-11.727-18.012-11.102zm270.13 3.0117c-11.977-0.96094-22.164 4.2227-22.754 11.578-0.58984 7.3672 8.6289 14.113 20.605 15.086 11.977 0.96094 22.164-4.2227 22.754-11.578 0.58594-7.3555-8.6406-14.113-20.605-15.086zm-131.7-19.668c-7.4531 0-13.5 4.0312-13.5 9s6.0469 9 13.5 9 13.5-4.0312 13.5-9-6.0508-9-13.5-9zm-19.32-52.871c-8.1836 0-14.809 4.0312-14.809 9s6.6367 9 14.809 9 14.809-4.0312 14.809-9-6.625-9-14.809-9z"
       id="path4"
       style="fill:#f37726;fill-opacity:1" />
  </g>
</svg>
